<svg width="36" height="36" viewBox="0 0 36 36" fill="none" xmlns="http://www.w3.org/2000/svg">
<circle cx="18" cy="18" r="18" fill="#F2F2F2"/>
<path d="M11.3334 13H9.66669V24.6667C9.66669 25.5875 10.4125 26.3333 11.3334 26.3333H23V24.6667H11.3334V13ZM24.6667 9.66667H14.6667C13.7459 9.66667 13 10.4125 13 11.3333V21.3333C13 22.2542 13.7459 23 14.6667 23H24.6667C25.5875 23 26.3334 22.2542 26.3334 21.3333V11.3333C26.3334 10.4125 25.5875 9.66667 24.6667 9.66667ZM23.8334 17.1667H20.5V20.5H18.8334V17.1667H15.5V15.5H18.8334V12.1667H20.5V15.5H23.8334V17.1667Z" fill="#909498"/>
</svg>
