<svg width="36" height="36" viewBox="0 0 36 36" fill="none" xmlns="http://www.w3.org/2000/svg">
<circle cx="18" cy="18" r="18" fill="#C09B4D"/>
<g clip-path="url(#clip0_6_1231)">
<path d="M11.3334 13H9.66675V24.6667C9.66675 25.5875 10.4126 26.3334 11.3334 26.3334H23.0001V24.6667H11.3334V13ZM24.6667 9.66669H14.6667C13.7459 9.66669 13.0001 10.4125 13.0001 11.3334V21.3334C13.0001 22.2542 13.7459 23 14.6667 23H24.6667C25.5876 23 26.3334 22.2542 26.3334 21.3334V11.3334C26.3334 10.4125 25.5876 9.66669 24.6667 9.66669ZM23.8334 17.1667H20.5001V20.5H18.8334V17.1667H15.5001V15.5H18.8334V12.1667H20.5001V15.5H23.8334V17.1667Z" fill="white"/>
</g>
<defs>
<clipPath id="clip0_6_1231">
<rect width="20" height="20" fill="white" transform="translate(8 8)"/>
</clipPath>
</defs>
</svg>
