<svg width="36" height="36" viewBox="0 0 36 36" fill="none" xmlns="http://www.w3.org/2000/svg">
<circle cx="18" cy="18" r="18" fill="#C09B4D"/>
<g clip-path="url(#clip0_6_1216)">
<path d="M13.5208 16.9958C14.7208 19.3542 16.65 21.2833 19.0125 22.4833L20.8458 20.6458C21.075 20.4167 21.4042 20.35 21.6917 20.4417C22.625 20.75 23.6292 20.9167 24.6667 20.9167C25.1292 20.9167 25.5 21.2875 25.5 21.75V24.6667C25.5 25.1292 25.1292 25.5 24.6667 25.5C16.8417 25.5 10.5 19.1583 10.5 11.3333C10.5 10.8708 10.875 10.5 11.3333 10.5H14.25C14.7125 10.5 15.0833 10.8708 15.0833 11.3333C15.0833 12.3708 15.25 13.375 15.5583 14.3083C15.65 14.5958 15.5833 14.925 15.3542 15.1542L13.5208 16.9958Z" fill="white"/>
</g>
<defs>
<clipPath id="clip0_6_1216">
<rect width="20" height="20" fill="white" transform="translate(8 8)"/>
</clipPath>
</defs>
</svg>
