<svg width="20" height="20" viewBox="0 0 20 20" fill="none" xmlns="http://www.w3.org/2000/svg">
<path fill-rule="evenodd" clip-rule="evenodd" d="M4 3H16V12H4V3ZM3 12V3C3 2.44771 3.44772 2 4 2H16C16.5523 2 17 2.44772 17 3V12H18C18.5523 12 19 12.4477 19 13V17C19 17.5523 18.5523 18 18 18H2C1.44772 18 1 17.5523 1 17V13C1 12.4477 1.44772 12 2 12H3ZM17 15C17 15.5523 16.5523 16 16 16C15.4477 16 15 15.5523 15 15C15 14.4477 15.4477 14 16 14C16.5523 14 17 14.4477 17 15Z" fill="white" fill-opacity="0.41"/>
<line x1="6" y1="5.5" x2="14" y2="5.5" stroke="white" stroke-opacity="0.41"/>
<line x1="6" y1="7.5" x2="14" y2="7.5" stroke="white" stroke-opacity="0.41"/>
<line x1="6" y1="9.5" x2="11" y2="9.5" stroke="white" stroke-opacity="0.41"/>
</svg>
